# xmcd
#
# Track frame offsets: 
#        150
#        15351
#        33132
#        62662
#        78462
#        94658
#        109867
#        126013
#        156929
#        174413
#        191803
#        209689
#        226711
#        248581
#
# Disc length: 3511 seconds
#
# Revision: 0
# Processed by: cddbd v1.5.2PL0 Copyright (c) Steve Scherf et al.
# Submitted via: ExactAudioCopy v1.0b3
#
DISCID=aa0db50e
DTITLE=Various Artist - Trance Decade - CD 3
DYEAR=1900
DGENRE=
TTITLE0=Foggy - Come (Into My Dream) (Vocal Radio Cut)
TTITLE1=Terence - Earth Song (Radio Mix)
TTITLE2=Blue 6 - Day After The Party (Scotty Dix Club Mix)
TTITLE3=DJ Teeno - Douzmah (Single)
TTITLE4=Seagate - The Prayer (Single Mix)
TTITLE5=Futuro Vivere - Use Your Imagination (Radio Mix)
TTITLE6=Status - Break The Silence (Radio Mix)
TTITLE7=Beat Control - No Gravity (Gravity Xtd Mix)
TTITLE8=Dreamer - The Adventures Of David Balfore (Short Dream Mix)
TTITLE9=Stella - Eternity (Single Cut)
TTITLE10=Engin-Eer Vs. Dodger - Don't Stop (Short Cut)
TTITLE11=Andrea Montorsi - History (Nebula Single Cut)
TTITLE12=Bassrate - Rhythm Nation (Vanilla Sound Mix)
TTITLE13=Clubbstars - Let The Bass Kick (Radio Edit)
EXTD=
EXTT0=
EXTT1=
EXTT2=
EXTT3=
EXTT4=
EXTT5=
EXTT6=
EXTT7=
EXTT8=
EXTT9=
EXTT10=
EXTT11=
EXTT12=
EXTT13=
PLAYORDER=
